<?xml version="1.0" standalone="no"?>
<!DOCTYPE svg PUBLIC "-//W3C//DTD SVG 20010904//EN"
 "http://www.w3.org/TR/2001/REC-SVG-20010904/DTD/svg10.dtd">
<svg version="1.0" xmlns="http://www.w3.org/2000/svg"
 width="512.000000pt" height="512.000000pt" viewBox="0 0 512.000000 512.000000"
 preserveAspectRatio="xMidYMid meet">
<metadata>
Created by potrace 1.11, written by Peter Selinger 2001-2013
</metadata>
<g transform="translate(0.000000,512.000000) scale(0.100000,-0.100000)"
fill="#000000" stroke="none">
<path d="M725 5109 c-97 -11 -148 -25 -233 -64 -228 -106 -387 -303 -437 -543
-22 -100 -22 -3504 0 -3604 31 -150 97 -269 210 -384 123 -125 264 -197 433
-223 48 -7 414 -11 1128 -11 l1057 0 -71 -74 c-67 -69 -77 -86 -73 -126 6 -51
58 -88 108 -75 32 8 260 227 274 264 12 31 -5 86 -34 106 -30 21 -80 19 -111
-6 -15 -12 -28 -20 -30 -18 -3 4 126 484 139 518 4 10 90 -69 265 -244 143
-143 260 -263 260 -266 0 -3 -57 -22 -127 -42 l-128 -35 395 -1 c233 -1 422 3
460 10 327 53 578 291 644 611 13 61 16 144 16 389 l0 312 89 92 c100 103 124
142 125 200 1 73 -13 97 -114 200 l-100 101 -3 1144 c-2 1067 -4 1149 -21
1205 -65 219 -212 394 -411 490 -178 86 -13 79 -1935 81 -938 1 -1736 -2
-1775 -7z m1136 -668 c33 -33 39 -82 14 -118 -54 -77 -652 -761 -677 -775 -20
-11 -42 -15 -57 -11 -31 7 -478 338 -491 364 -6 10 -10 34 -10 54 0 50 36 85
89 85 35 0 59 -14 198 -116 87 -64 171 -127 187 -139 l29 -23 279 327 c154
179 292 338 309 354 41 38 90 37 130 -2z m2305 -446 c48 -20 70 -71 51 -117
-28 -67 35 -63 -896 -66 -465 -2 -861 0 -880 3 -76 14 -108 105 -55 158 14 14
35 28 47 30 12 2 399 5 860 6 715 1 843 -1 873 -14z m-2338 -836 c60 -21 79
-87 43 -144 -11 -16 -163 -196 -338 -399 -324 -377 -344 -396 -398 -382 -31 8
-457 326 -479 357 -26 38 -21 86 14 121 53 52 79 41 290 -117 100 -75 186
-133 190 -128 4 4 135 157 290 338 243 284 321 365 351 365 3 0 20 -5 37 -11z
m2365 -484 c14 -14 28 -37 31 -51 9 -33 -18 -88 -50 -103 -18 -8 -264 -11
-890 -11 l-866 0 -29 29 c-21 22 -29 39 -29 66 0 27 8 44 29 66 l29 29 875 0
874 0 26 -25z m-2332 -934 c31 -31 38 -75 19 -111 -25 -46 -653 -767 -682
-783 -20 -11 -43 -15 -58 -11 -30 7 -477 339 -490 365 -6 10 -10 34 -10 54 0
51 36 85 89 85 36 0 60 -15 227 -139 l186 -140 284 332 c156 183 298 342 315
355 44 31 84 29 120 -7z m1659 -436 l-95 -95 -506 0 -507 0 -26 31 c-44 52
-28 124 34 148 15 6 253 10 610 10 l585 1 -95 -95z m570 82 c0 -1 -42 -43 -92
-92 l-93 -90 90 93 c83 85 95 97 95 89z"/>
</g>
</svg>
